<mxfile host="65bd71144e">
    <diagram id="C5RBs43oDa-KdzZeNtuy" name="Page-1">
        <mxGraphModel dx="601" dy="813" grid="1" gridSize="10" guides="1" tooltips="1" connect="1" arrows="1" fold="1" page="1" pageScale="1" pageWidth="827" pageHeight="1169" math="0" shadow="0">
            <root>
                <mxCell id="WIyWlLk6GJQsqaUBKTNV-0"/>
                <mxCell id="WIyWlLk6GJQsqaUBKTNV-1" parent="WIyWlLk6GJQsqaUBKTNV-0"/>
                <mxCell id="47" value="XCPEngine 0.0.8" style="rounded=1;whiteSpace=wrap;html=1;align=left;dashed=1;glass=0;spacingLeft=15;" vertex="1" parent="WIyWlLk6GJQsqaUBKTNV-1">
                    <mxGeometry x="218" y="640" width="390" height="70" as="geometry"/>
                </mxCell>
                <mxCell id="27" value="fMRIPrep 20.2.3" style="rounded=1;whiteSpace=wrap;html=1;align=left;dashed=1;glass=0;spacingLeft=15;" vertex="1" parent="WIyWlLk6GJQsqaUBKTNV-1">
                    <mxGeometry x="220" y="480" width="390" height="70" as="geometry"/>
                </mxCell>
                <mxCell id="WIyWlLk6GJQsqaUBKTNV-2" value="" style="rounded=0;html=1;jettySize=auto;orthogonalLoop=1;fontSize=15;endArrow=classic;endFill=1;endSize=8;strokeWidth=1;shadow=0;labelBackgroundColor=none;edgeStyle=orthogonalEdgeStyle;" parent="WIyWlLk6GJQsqaUBKTNV-1" source="WIyWlLk6GJQsqaUBKTNV-3" target="WIyWlLk6GJQsqaUBKTNV-6" edge="1">
                    <mxGeometry relative="1" as="geometry"/>
                </mxCell>
                <mxCell id="WIyWlLk6GJQsqaUBKTNV-3" value="&lt;span style=&quot;font-size: 15px&quot;&gt;Kable Lab&amp;nbsp;&lt;/span&gt;&lt;b style=&quot;font-size: 15px&quot;&gt;n&amp;nbsp;= 166 subjects,&amp;nbsp;&lt;/b&gt;&lt;b&gt;293 sessions&lt;/b&gt;" style="rounded=1;whiteSpace=wrap;html=1;fontSize=15;glass=0;strokeWidth=1;shadow=0;" parent="WIyWlLk6GJQsqaUBKTNV-1" vertex="1">
                    <mxGeometry x="332" y="20" width="164" height="80" as="geometry"/>
                </mxCell>
                <mxCell id="XRYE-j-GYC6dXX16yt95-13" value="" style="edgeStyle=orthogonalEdgeStyle;rounded=0;orthogonalLoop=1;jettySize=auto;html=1;fontSize=15;exitX=0.5;exitY=1;exitDx=0;exitDy=0;" parent="WIyWlLk6GJQsqaUBKTNV-1" source="WIyWlLk6GJQsqaUBKTNV-6" target="XRYE-j-GYC6dXX16yt95-12" edge="1">
                    <mxGeometry relative="1" as="geometry">
                        <mxPoint x="414" y="200" as="sourcePoint"/>
                    </mxGeometry>
                </mxCell>
                <mxCell id="WIyWlLk6GJQsqaUBKTNV-6" value="Downloaded to CUBIC&lt;br style=&quot;font-size: 15px&quot;&gt;&lt;b style=&quot;font-size: 15px&quot;&gt;n&amp;nbsp;= 166 (293)&lt;/b&gt;" style="whiteSpace=wrap;html=1;shadow=0;fontFamily=Helvetica;fontSize=15;align=center;strokeWidth=1;spacing=6;spacingTop=-4;rounded=1;" parent="WIyWlLk6GJQsqaUBKTNV-1" vertex="1">
                    <mxGeometry x="329" y="120" width="170" height="70" as="geometry"/>
                </mxCell>
                <mxCell id="XRYE-j-GYC6dXX16yt95-18" value="" style="edgeStyle=orthogonalEdgeStyle;rounded=0;orthogonalLoop=1;jettySize=auto;html=1;fontSize=15;" parent="WIyWlLk6GJQsqaUBKTNV-1" source="XRYE-j-GYC6dXX16yt95-12" target="XRYE-j-GYC6dXX16yt95-17" edge="1">
                    <mxGeometry relative="1" as="geometry"/>
                </mxCell>
                <mxCell id="wHM7SWZ9dMUQdtztSqZD-10" value="" style="edgeStyle=orthogonalEdgeStyle;rounded=0;orthogonalLoop=1;jettySize=auto;html=1;endArrow=classic;endFill=1;entryX=0.5;entryY=0;entryDx=0;entryDy=0;fontSize=15;" parent="WIyWlLk6GJQsqaUBKTNV-1" source="XRYE-j-GYC6dXX16yt95-12" target="wHM7SWZ9dMUQdtztSqZD-11" edge="1">
                    <mxGeometry relative="1" as="geometry">
                        <mxPoint x="524" y="420" as="targetPoint"/>
                    </mxGeometry>
                </mxCell>
                <mxCell id="wHM7SWZ9dMUQdtztSqZD-15" style="edgeStyle=orthogonalEdgeStyle;rounded=0;orthogonalLoop=1;jettySize=auto;html=1;exitX=1;exitY=0.5;exitDx=0;exitDy=0;entryX=0.5;entryY=0;entryDx=0;entryDy=0;endArrow=classic;endFill=1;fontSize=15;" parent="WIyWlLk6GJQsqaUBKTNV-1" source="XRYE-j-GYC6dXX16yt95-12" target="wHM7SWZ9dMUQdtztSqZD-14" edge="1">
                    <mxGeometry relative="1" as="geometry"/>
                </mxCell>
                <mxCell id="XRYE-j-GYC6dXX16yt95-12" value="Participants with BOLD&lt;br style=&quot;font-size: 15px&quot;&gt;&lt;b style=&quot;font-size: 15px&quot;&gt;n&amp;nbsp;= 166 (&lt;/b&gt;&lt;b&gt;293)&lt;/b&gt;" style="rounded=1;whiteSpace=wrap;html=1;shadow=0;strokeWidth=1;spacing=6;spacingTop=-4;fontSize=15;" parent="WIyWlLk6GJQsqaUBKTNV-1" vertex="1">
                    <mxGeometry x="329" y="220" width="170" height="40" as="geometry"/>
                </mxCell>
                <mxCell id="1" value="" style="edgeStyle=none;html=1;exitX=0.5;exitY=1;exitDx=0;exitDy=0;entryX=0.5;entryY=0;entryDx=0;entryDy=0;" edge="1" parent="WIyWlLk6GJQsqaUBKTNV-1" source="XRYE-j-GYC6dXX16yt95-17" target="0">
                    <mxGeometry relative="1" as="geometry"/>
                </mxCell>
                <mxCell id="5" style="edgeStyle=none;html=1;exitX=0.5;exitY=1;exitDx=0;exitDy=0;entryX=0.5;entryY=0;entryDx=0;entryDy=0;" edge="1" parent="WIyWlLk6GJQsqaUBKTNV-1" source="XRYE-j-GYC6dXX16yt95-17" target="2">
                    <mxGeometry relative="1" as="geometry"/>
                </mxCell>
                <mxCell id="6" style="edgeStyle=none;html=1;exitX=0.5;exitY=1;exitDx=0;exitDy=0;entryX=0.5;entryY=0;entryDx=0;entryDy=0;" edge="1" parent="WIyWlLk6GJQsqaUBKTNV-1" source="XRYE-j-GYC6dXX16yt95-17" target="3">
                    <mxGeometry relative="1" as="geometry"/>
                </mxCell>
                <mxCell id="7" style="edgeStyle=none;html=1;exitX=0.5;exitY=1;exitDx=0;exitDy=0;entryX=0.5;entryY=0;entryDx=0;entryDy=0;" edge="1" parent="WIyWlLk6GJQsqaUBKTNV-1" source="XRYE-j-GYC6dXX16yt95-17" target="4">
                    <mxGeometry relative="1" as="geometry"/>
                </mxCell>
                <mxCell id="XRYE-j-GYC6dXX16yt95-17" value="BOLD Task &lt;i style=&quot;font-size: 15px&quot;&gt;ITC&lt;/i&gt;&lt;br style=&quot;font-size: 15px&quot;&gt;&lt;b style=&quot;font-size: 15px&quot;&gt;n&amp;nbsp;= 56 (293)&lt;/b&gt;" style="whiteSpace=wrap;html=1;shadow=0;strokeWidth=1;fontSize=15;rounded=1;glass=0;fillColor=#e1d5e7;strokeColor=#9673a6;" parent="WIyWlLk6GJQsqaUBKTNV-1" vertex="1">
                    <mxGeometry x="140" y="280" width="170" height="40" as="geometry"/>
                </mxCell>
                <mxCell id="46" style="edgeStyle=orthogonalEdgeStyle;rounded=0;html=1;exitX=1;exitY=0.5;exitDx=0;exitDy=0;entryX=0;entryY=0.5;entryDx=0;entryDy=0;" edge="1" parent="WIyWlLk6GJQsqaUBKTNV-1" source="XRYE-j-GYC6dXX16yt95-24" target="wHM7SWZ9dMUQdtztSqZD-38">
                    <mxGeometry relative="1" as="geometry"/>
                </mxCell>
                <mxCell id="XRYE-j-GYC6dXX16yt95-24" value="&lt;span style=&quot;font-size: 15px&quot;&gt;Malformed mask&amp;nbsp;&lt;/span&gt;&lt;b style=&quot;font-size: 15px&quot;&gt;n&amp;nbsp;= 2&lt;/b&gt;" style="rounded=1;whiteSpace=wrap;html=1;fontSize=15;fillColor=#f8cecc;strokeColor=#b85450;" parent="WIyWlLk6GJQsqaUBKTNV-1" vertex="1">
                    <mxGeometry x="490" y="490" width="105" height="50" as="geometry"/>
                </mxCell>
                <mxCell id="30" style="edgeStyle=none;html=1;exitX=0.5;exitY=1;exitDx=0;exitDy=0;entryX=0.5;entryY=0;entryDx=0;entryDy=0;" edge="1" parent="WIyWlLk6GJQsqaUBKTNV-1" source="wHM7SWZ9dMUQdtztSqZD-11" target="29">
                    <mxGeometry relative="1" as="geometry"/>
                </mxCell>
                <mxCell id="wHM7SWZ9dMUQdtztSqZD-11" value="BOLD Task &lt;i style=&quot;font-size: 15px&quot;&gt;Rest&lt;/i&gt;&lt;br style=&quot;font-size: 15px&quot;&gt;&lt;b style=&quot;font-size: 15px&quot;&gt;n =&amp;nbsp;&lt;/b&gt;&lt;b&gt;292&lt;/b&gt;" style="whiteSpace=wrap;html=1;shadow=0;strokeWidth=1;fontSize=15;rounded=1;glass=0;fillColor=#d5e8d4;strokeColor=#82b366;" parent="WIyWlLk6GJQsqaUBKTNV-1" vertex="1">
                    <mxGeometry x="329" y="280" width="170" height="40" as="geometry"/>
                </mxCell>
                <mxCell id="15" style="edgeStyle=none;html=1;exitX=0.5;exitY=1;exitDx=0;exitDy=0;entryX=0.5;entryY=0;entryDx=0;entryDy=0;" edge="1" parent="WIyWlLk6GJQsqaUBKTNV-1" source="wHM7SWZ9dMUQdtztSqZD-14" target="12">
                    <mxGeometry relative="1" as="geometry"/>
                </mxCell>
                <mxCell id="17" style="edgeStyle=none;html=1;exitX=0.5;exitY=1;exitDx=0;exitDy=0;entryX=0.5;entryY=0;entryDx=0;entryDy=0;" edge="1" parent="WIyWlLk6GJQsqaUBKTNV-1" source="wHM7SWZ9dMUQdtztSqZD-14" target="10">
                    <mxGeometry relative="1" as="geometry"/>
                </mxCell>
                <mxCell id="18" style="edgeStyle=none;html=1;exitX=0.5;exitY=1;exitDx=0;exitDy=0;entryX=0.5;entryY=0;entryDx=0;entryDy=0;" edge="1" parent="WIyWlLk6GJQsqaUBKTNV-1" source="wHM7SWZ9dMUQdtztSqZD-14" target="13">
                    <mxGeometry relative="1" as="geometry"/>
                </mxCell>
                <mxCell id="19" style="edgeStyle=none;html=1;exitX=0.5;exitY=1;exitDx=0;exitDy=0;entryX=0.5;entryY=0;entryDx=0;entryDy=0;" edge="1" parent="WIyWlLk6GJQsqaUBKTNV-1" source="wHM7SWZ9dMUQdtztSqZD-14" target="14">
                    <mxGeometry relative="1" as="geometry"/>
                </mxCell>
                <mxCell id="wHM7SWZ9dMUQdtztSqZD-14" value="BOLD Task &lt;i style=&quot;font-size: 15px&quot;&gt;Risk&lt;/i&gt;&lt;br style=&quot;font-size: 15px&quot;&gt;&lt;b style=&quot;font-size: 15px&quot;&gt;n = 293&lt;/b&gt;" style="whiteSpace=wrap;html=1;shadow=0;strokeWidth=1;fontSize=15;rounded=1;glass=0;fillColor=#dae8fc;strokeColor=#6c8ebf;" parent="WIyWlLk6GJQsqaUBKTNV-1" vertex="1">
                    <mxGeometry x="520" y="280" width="170" height="40" as="geometry"/>
                </mxCell>
                <mxCell id="23" style="edgeStyle=none;html=1;exitX=1;exitY=0.5;exitDx=0;exitDy=0;entryX=0;entryY=0.5;entryDx=0;entryDy=0;" edge="1" parent="WIyWlLk6GJQsqaUBKTNV-1" source="wHM7SWZ9dMUQdtztSqZD-35" target="XRYE-j-GYC6dXX16yt95-24">
                    <mxGeometry relative="1" as="geometry"/>
                </mxCell>
                <mxCell id="45" style="edgeStyle=orthogonalEdgeStyle;rounded=0;html=1;exitX=0.5;exitY=1;exitDx=0;exitDy=0;entryX=0.5;entryY=0;entryDx=0;entryDy=0;" edge="1" parent="WIyWlLk6GJQsqaUBKTNV-1" source="wHM7SWZ9dMUQdtztSqZD-35" target="44">
                    <mxGeometry relative="1" as="geometry"/>
                </mxCell>
                <mxCell id="wHM7SWZ9dMUQdtztSqZD-35" value="" style="ellipse;whiteSpace=wrap;html=1;aspect=fixed;rounded=1;fontSize=15;" parent="WIyWlLk6GJQsqaUBKTNV-1" vertex="1">
                    <mxGeometry x="409" y="510" width="10" height="10" as="geometry"/>
                </mxCell>
                <mxCell id="wHM7SWZ9dMUQdtztSqZD-38" value="fMRIPrep failed&lt;br style=&quot;font-size: 15px&quot;&gt;&lt;b style=&quot;font-size: 15px&quot;&gt;n = 2&lt;/b&gt;" style="rounded=1;whiteSpace=wrap;html=1;fontSize=15;fillColor=#f8cecc;strokeColor=#b85450;" parent="WIyWlLk6GJQsqaUBKTNV-1" vertex="1">
                    <mxGeometry x="660" y="485" width="114" height="60" as="geometry"/>
                </mxCell>
                <mxCell id="wHM7SWZ9dMUQdtztSqZD-40" value="Participants with preprocessed BOLD&lt;br style=&quot;font-size: 15px&quot;&gt;&lt;b style=&quot;font-size: 15px&quot;&gt;n = 291&lt;/b&gt;" style="whiteSpace=wrap;html=1;rounded=1;fontSize=15;" parent="WIyWlLk6GJQsqaUBKTNV-1" vertex="1">
                    <mxGeometry x="327" y="750" width="174" height="100" as="geometry"/>
                </mxCell>
                <mxCell id="36" style="edgeStyle=orthogonalEdgeStyle;rounded=0;html=1;exitX=0.5;exitY=1;exitDx=0;exitDy=0;entryX=0.5;entryY=0;entryDx=0;entryDy=0;" edge="1" parent="WIyWlLk6GJQsqaUBKTNV-1" source="0" target="29">
                    <mxGeometry relative="1" as="geometry"/>
                </mxCell>
                <mxCell id="0" value="Run 1&lt;br&gt;n=293" style="whiteSpace=wrap;html=1;fontSize=15;fillColor=#e1d5e7;strokeColor=#9673a6;shadow=0;strokeWidth=1;rounded=1;glass=0;" vertex="1" parent="WIyWlLk6GJQsqaUBKTNV-1">
                    <mxGeometry x="110" y="340" width="50" height="40" as="geometry"/>
                </mxCell>
                <mxCell id="35" style="edgeStyle=orthogonalEdgeStyle;rounded=0;html=1;exitX=0.5;exitY=1;exitDx=0;exitDy=0;entryX=0.5;entryY=0;entryDx=0;entryDy=0;" edge="1" parent="WIyWlLk6GJQsqaUBKTNV-1" source="2" target="29">
                    <mxGeometry relative="1" as="geometry"/>
                </mxCell>
                <mxCell id="2" value="Run 2 n=293" style="whiteSpace=wrap;html=1;fontSize=15;fillColor=#e1d5e7;strokeColor=#9673a6;shadow=0;strokeWidth=1;rounded=1;glass=0;" vertex="1" parent="WIyWlLk6GJQsqaUBKTNV-1">
                    <mxGeometry x="170" y="340" width="50" height="40" as="geometry"/>
                </mxCell>
                <mxCell id="33" style="edgeStyle=orthogonalEdgeStyle;rounded=0;html=1;exitX=0.5;exitY=1;exitDx=0;exitDy=0;entryX=0.5;entryY=0;entryDx=0;entryDy=0;" edge="1" parent="WIyWlLk6GJQsqaUBKTNV-1" source="3" target="29">
                    <mxGeometry relative="1" as="geometry"/>
                </mxCell>
                <mxCell id="3" value="Run 3 n=293" style="whiteSpace=wrap;html=1;fontSize=15;fillColor=#e1d5e7;strokeColor=#9673a6;shadow=0;strokeWidth=1;rounded=1;glass=0;" vertex="1" parent="WIyWlLk6GJQsqaUBKTNV-1">
                    <mxGeometry x="230" y="340" width="50" height="40" as="geometry"/>
                </mxCell>
                <mxCell id="32" style="edgeStyle=orthogonalEdgeStyle;html=1;exitX=0.5;exitY=1;exitDx=0;exitDy=0;entryX=0.5;entryY=0;entryDx=0;entryDy=0;rounded=0;" edge="1" parent="WIyWlLk6GJQsqaUBKTNV-1" source="4" target="29">
                    <mxGeometry relative="1" as="geometry"/>
                </mxCell>
                <mxCell id="4" value="Run 4 n=290" style="whiteSpace=wrap;html=1;fontSize=15;fillColor=#e1d5e7;strokeColor=#9673a6;shadow=0;strokeWidth=1;rounded=1;glass=0;" vertex="1" parent="WIyWlLk6GJQsqaUBKTNV-1">
                    <mxGeometry x="290" y="340" width="50" height="40" as="geometry"/>
                </mxCell>
                <mxCell id="37" style="edgeStyle=orthogonalEdgeStyle;rounded=0;html=1;exitX=0.5;exitY=1;exitDx=0;exitDy=0;entryX=0.5;entryY=0;entryDx=0;entryDy=0;" edge="1" parent="WIyWlLk6GJQsqaUBKTNV-1" source="10" target="29">
                    <mxGeometry relative="1" as="geometry"/>
                </mxCell>
                <mxCell id="10" value="Run 1 n=293" style="whiteSpace=wrap;html=1;fontSize=15;fillColor=#dae8fc;strokeColor=#6c8ebf;shadow=0;strokeWidth=1;rounded=1;glass=0;" vertex="1" parent="WIyWlLk6GJQsqaUBKTNV-1">
                    <mxGeometry x="490" y="340" width="50" height="40" as="geometry"/>
                </mxCell>
                <mxCell id="38" style="edgeStyle=orthogonalEdgeStyle;rounded=0;html=1;exitX=0.5;exitY=1;exitDx=0;exitDy=0;entryX=0.5;entryY=0;entryDx=0;entryDy=0;" edge="1" parent="WIyWlLk6GJQsqaUBKTNV-1" source="12" target="29">
                    <mxGeometry relative="1" as="geometry"/>
                </mxCell>
                <mxCell id="12" value="Run 2 n=293" style="whiteSpace=wrap;html=1;fontSize=15;fillColor=#dae8fc;strokeColor=#6c8ebf;shadow=0;strokeWidth=1;rounded=1;glass=0;" vertex="1" parent="WIyWlLk6GJQsqaUBKTNV-1">
                    <mxGeometry x="550" y="340" width="50" height="40" as="geometry"/>
                </mxCell>
                <mxCell id="39" style="edgeStyle=orthogonalEdgeStyle;rounded=0;html=1;exitX=0.5;exitY=1;exitDx=0;exitDy=0;entryX=0.5;entryY=0;entryDx=0;entryDy=0;" edge="1" parent="WIyWlLk6GJQsqaUBKTNV-1" source="13" target="29">
                    <mxGeometry relative="1" as="geometry"/>
                </mxCell>
                <mxCell id="13" value="Run 3 n=292" style="whiteSpace=wrap;html=1;fontSize=15;fillColor=#dae8fc;strokeColor=#6c8ebf;shadow=0;strokeWidth=1;rounded=1;glass=0;" vertex="1" parent="WIyWlLk6GJQsqaUBKTNV-1">
                    <mxGeometry x="610" y="340" width="50" height="40" as="geometry"/>
                </mxCell>
                <mxCell id="40" style="edgeStyle=orthogonalEdgeStyle;rounded=0;html=1;exitX=0.5;exitY=1;exitDx=0;exitDy=0;entryX=0.5;entryY=0;entryDx=0;entryDy=0;" edge="1" parent="WIyWlLk6GJQsqaUBKTNV-1" source="14" target="29">
                    <mxGeometry relative="1" as="geometry"/>
                </mxCell>
                <mxCell id="14" value="Run 4 n=290" style="whiteSpace=wrap;html=1;fontSize=15;fillColor=#dae8fc;strokeColor=#6c8ebf;shadow=0;strokeWidth=1;rounded=1;glass=0;" vertex="1" parent="WIyWlLk6GJQsqaUBKTNV-1">
                    <mxGeometry x="670" y="340" width="50" height="40" as="geometry"/>
                </mxCell>
                <mxCell id="41" style="edgeStyle=orthogonalEdgeStyle;rounded=0;html=1;exitX=0.5;exitY=1;exitDx=0;exitDy=0;entryX=0.5;entryY=0;entryDx=0;entryDy=0;" edge="1" parent="WIyWlLk6GJQsqaUBKTNV-1" source="29" target="wHM7SWZ9dMUQdtztSqZD-35">
                    <mxGeometry relative="1" as="geometry"/>
                </mxCell>
                <mxCell id="29" value="&lt;span style=&quot;font-size: 15px&quot;&gt;fMRIPrep Inputs&lt;br&gt;&lt;/span&gt;&lt;b style=&quot;font-size: 15px&quot;&gt;n=(&lt;/b&gt;&lt;b&gt;293)&lt;/b&gt;" style="rounded=1;whiteSpace=wrap;html=1;shadow=0;strokeWidth=1;spacing=6;spacingTop=-4;fontSize=15;" vertex="1" parent="WIyWlLk6GJQsqaUBKTNV-1">
                    <mxGeometry x="329" y="430" width="170" height="40" as="geometry"/>
                </mxCell>
                <mxCell id="48" style="edgeStyle=orthogonalEdgeStyle;rounded=0;html=1;exitX=0.5;exitY=1;exitDx=0;exitDy=0;entryX=0.5;entryY=0;entryDx=0;entryDy=0;" edge="1" parent="WIyWlLk6GJQsqaUBKTNV-1" source="44" target="43">
                    <mxGeometry relative="1" as="geometry"/>
                </mxCell>
                <mxCell id="44" value="&lt;span style=&quot;font-size: 15px&quot;&gt;XCP Inputs&lt;br&gt;&lt;/span&gt;&lt;b style=&quot;font-size: 15px&quot;&gt;n=(&lt;/b&gt;&lt;b&gt;291)&lt;/b&gt;" style="rounded=1;whiteSpace=wrap;html=1;shadow=0;strokeWidth=1;spacing=6;spacingTop=-4;fontSize=15;" vertex="1" parent="WIyWlLk6GJQsqaUBKTNV-1">
                    <mxGeometry x="329" y="580" width="170" height="40" as="geometry"/>
                </mxCell>
                <mxCell id="49" style="edgeStyle=orthogonalEdgeStyle;rounded=0;html=1;exitX=0.5;exitY=1;exitDx=0;exitDy=0;entryX=0.5;entryY=0;entryDx=0;entryDy=0;" edge="1" parent="WIyWlLk6GJQsqaUBKTNV-1" source="43" target="wHM7SWZ9dMUQdtztSqZD-40">
                    <mxGeometry relative="1" as="geometry"/>
                </mxCell>
                <mxCell id="43" value="" style="ellipse;whiteSpace=wrap;html=1;aspect=fixed;rounded=1;fontSize=15;" vertex="1" parent="WIyWlLk6GJQsqaUBKTNV-1">
                    <mxGeometry x="409" y="670" width="10" height="10" as="geometry"/>
                </mxCell>
            </root>
        </mxGraphModel>
    </diagram>
</mxfile>